<?xml version="1.0" encoding="UTF-8" standalone="no" ?>
<!DOCTYPE svg PUBLIC "-//W3C//DTD SVG 1.1//EN" "http://www.w3.org/Graphics/SVG/1.1/DTD/svg11.dtd">
<svg xmlns="http://www.w3.org/2000/svg" xmlns:xlink="http://www.w3.org/1999/xlink" version="1.1" width="230" height="40" viewBox="0 0 230 40" xml:space="preserve">
<desc>Created with Fabric.js 4.6.0</desc>
<defs>
</defs>
<g transform="matrix(9.05 0 0 1.62 114 20)" id="J1ISp9wElYdbn4pepE_SZ"  >
<path style="stroke: rgb(189,187,176); stroke-width: 0; stroke-dasharray: none; stroke-linecap: butt; stroke-dashoffset: 0; stroke-linejoin: miter; stroke-miterlimit: 4; fill: rgb(189,187,176); fill-rule: nonzero; opacity: 1;" vector-effect="non-scaling-stroke"  transform=" translate(0, 0)" d="M -11.11111 -11.11111 L 11.11112 -11.11111 L 11.11112 11.11112 L -11.11111 11.11112 z" stroke-linecap="round" />
</g>
<g transform="matrix(1.21 0 0 1.62 14.46 20)" id="0DneZuA5hhTRK7LL04adq"  >
<path style="stroke: rgb(189,187,176); stroke-width: 0; stroke-dasharray: none; stroke-linecap: butt; stroke-dashoffset: 0; stroke-linejoin: miter; stroke-miterlimit: 4; fill: rgb(189,187,176); fill-rule: nonzero; opacity: 1;" vector-effect="non-scaling-stroke"  transform=" translate(0, 0)" d="M 0 -11.1111 C 6.13333 -11.1111 11.1111 -6.133330000000001 11.1111 0 C 11.1111 6.13333 6.133330000000001 11.1111 0 11.1111 C -6.13333 11.1111 -11.1111 6.133330000000001 -11.1111 0 C -11.1111 -6.13333 -6.133330000000001 -11.1111 0 -11.1111 z" stroke-linecap="round" />
</g>
<g transform="matrix(1.21 0 0 1.62 215.54 20)" id="Y6E0aZw60dc6zpUvo9MLC"  >
<path style="stroke: rgb(189,187,176); stroke-width: 0; stroke-dasharray: none; stroke-linecap: butt; stroke-dashoffset: 0; stroke-linejoin: miter; stroke-miterlimit: 4; fill: rgb(189,187,176); fill-rule: nonzero; opacity: 1;" vector-effect="non-scaling-stroke"  transform=" translate(0, 0)" d="M 0 -11.1111 C 6.13333 -11.1111 11.1111 -6.133330000000001 11.1111 0 C 11.1111 6.13333 6.133330000000001 11.1111 0 11.1111 C -6.13333 11.1111 -11.1111 6.133330000000001 -11.1111 0 C -11.1111 -6.13333 -6.133330000000001 -11.1111 0 -11.1111 z" stroke-linecap="round" />
</g>
</svg>