<?xml version="1.0" encoding="iso-8859-1"?>
<!-- Generator: Adobe Illustrator 19.0.0, SVG Export Plug-In . SVG Version: 6.00 Build 0)  -->
<svg version="1.1" id="Layer_1" xmlns="http://www.w3.org/2000/svg" xmlns:xlink="http://www.w3.org/1999/xlink" x="0px" y="0px"
	 viewBox="0 0 512 512" style="enable-background:new 0 0 512 512;" xml:space="preserve">
<g>
	<path style="fill:#DB2B42;" d="M0,379.928h71.184v98.776l118.76-98.776H512V33.296H0V379.928z M171.208,226.368h38.352l6.32-44.288
		h-33.6v-36.768h39.144l9.88-68.8h35.184l-9.88,68.8h35.984l10.272-68.8h35.192l-10.28,68.8h31.632v36.768H322.24l-6.32,44.288
		h32.816v36.376h-38.752l-9.88,70.776H264.52l9.888-70.776h-35.984l-9.88,70.776H192.96l10.28-70.776h-32.024v-36.376H171.208z"/>
	<polygon style="fill:#DB2B42;" points="287.048,182.08 251.072,182.08 244.744,226.368 280.72,226.368 	"/>
</g>
<path style="fill:#8AD5DD;" d="M192.944,333.52h35.584l9.88-70.776H274.4l-9.888,70.776h35.584l9.88-70.776h38.752v-36.376H315.92
	l6.32-44.288h37.168v-36.768h-31.632l10.28-68.8h-35.192l-10.272,68.8h-35.984l9.88-68.8h-35.184l-9.88,68.8H182.28v36.768h33.6
	l-6.32,44.288h-38.352v36.376h32.024L192.944,333.52z M251.072,182.08h35.976l-6.328,44.288h-35.976L251.072,182.08z"/>
<g>
</g>
<g>
</g>
<g>
</g>
<g>
</g>
<g>
</g>
<g>
</g>
<g>
</g>
<g>
</g>
<g>
</g>
<g>
</g>
<g>
</g>
<g>
</g>
<g>
</g>
<g>
</g>
<g>
</g>
</svg>
